<?xml version="1.0" standalone="no"?>
<!DOCTYPE svg PUBLIC "-//W3C//DTD SVG 20010904//EN"
 "http://www.w3.org/TR/2001/REC-SVG-20010904/DTD/svg10.dtd">
<svg version="1.0" xmlns="http://www.w3.org/2000/svg"
 width="300.000000pt" height="300.000000pt" viewBox="0 0 300.000000 300.000000"
 preserveAspectRatio="xMidYMid meet">
<metadata>
Created by potrace 1.11, written by Peter Selinger 2001-2013
</metadata>
<g transform="translate(0.000000,300.000000) scale(0.100000,-0.100000)"
fill="#000000" stroke="none">
<path d="M0 1500 l0 -1500 1500 0 1500 0 0 1500 0 1500 -1500 0 -1500 0 0
-1500z m1686 1185 c444 -72 815 -389 954 -815 100 -305 71 -640 -81 -930 -64
-122 -128 -207 -227 -302 -583 -557 -1528 -402 -1896 311 -100 194 -131 329
-130 566 1 185 18 277 80 431 206 515 755 827 1300 739z"/>
<path d="M1375 2620 c-621 -74 -1067 -629 -996 -1239 45 -385 267 -709 608
-883 330 -171 720 -166 1050 12 261 140 465 395 547 682 160 560 -142 1158
-691 1364 -147 55 -366 82 -518 64z m-246 -829 c8 -5 11 -16 8 -26 -4 -9 -11
-14 -16 -11 -16 10 -41 -6 -41 -26 0 -11 28 -70 62 -130 61 -107 63 -108 79
-87 37 49 112 206 107 221 -4 9 -20 19 -37 23 -22 5 -31 12 -31 26 0 17 8 19
93 19 50 0 98 -4 106 -9 14 -9 9 -42 -6 -40 -25 4 -39 -15 -122 -161 -88 -156
-91 -162 -91 -224 0 -69 7 -80 58 -91 23 -5 32 -12 32 -26 0 -19 -7 -19 -127
-17 -123 3 -128 4 -131 25 -3 17 1 20 16 16 11 -2 29 0 41 6 18 10 21 21 21
81 l0 69 -92 157 c-51 86 -103 163 -115 172 -13 8 -23 21 -23 28 0 11 21 14
98 14 53 0 103 -4 111 -9z m766 -10 c49 -22 90 -62 118 -116 18 -33 22 -57 22
-135 0 -84 -3 -101 -27 -145 -53 -100 -138 -154 -242 -155 -78 0 -128 16 -175
57 -61 52 -86 112 -85 208 0 134 61 237 168 286 55 25 167 25 221 0z"/>
<path d="M1716 1740 c-39 -12 -75 -47 -97 -95 -24 -52 -26 -199 -3 -253 33
-79 104 -121 183 -107 88 15 137 78 148 188 17 187 -88 309 -231 267z"/>
</g>
</svg>
